<svg xmlns="http://www.w3.org/2000/svg" xmlns:xlink="http://www.w3.org/1999/xlink" xmlns:v="https://vecta.io/nano" viewBox="0 0 98.2 98.56"><path d="M68.09 79.03c-2.74.33-4.51-.6-5.71-2.87l-1.03-1.82-14.88-25.95c-.97-1.7-2.38-2.58-4.36-2.52-.82.02-1.65 0-2.48-.04-1.17-.06-2.15.29-2.78 1.3-.62.99-.61 2.02-.02 3.06L57.6 86.38c.3.52.63.68 1.2.67l11.06.02 8.77.09h4.82L41.74 14.44c-.16.2-.25.29-.31.4l-10.86 18.7c-1.36 2.38-.65 5.75 1.47 7.55 2.69 2.29 6.32 2.08 8.93-.52 1.87-1.86 4.2-1.6 5.48.62L67.5 77.88l.59 1.15zm-41.2-39.08l-.54.84-4.32 7.4c-.42.69-.4 1.19 0 1.88L38 77.9l.6 1.11c-.73 0-1.26.06-1.77-.01-1.71-.25-2.98-1.17-3.84-2.68L20.07 53.76l-.63-1-.47.72-4.46 7.65c-.34.57-.32.98.01 1.54l8.73 15.19c.18.31.32.63.53 1.03H13.46l1.14-1.99c.85-1.35 1.21-2.82.95-4.37-.43-2.68-2.35-4.61-3.46-7.01-.17.16-.23.19-.26.25L.21 85.78c-.43.74-.19 1.08.71 1.1l8.67.1 33.28.05.95.01h10.07l-27-47.09zM98.2 87.16L55.68 13.03l-2.21 3.79c-2.2 3.67-2.11 7.29.02 10.98l22.85 39.82 10.78 18.74c.19.33.61.76.93.77l10.15.03z" fill="#e8155d"/><path d="M49.1 1.58l-5.08 8.76c-.13.23-.17.64-.05.86l2.94 5.11c.61 1 2.11 1.1 2.77.16 1.31-1.88 2.36-3.89 2.53-6.26.25-3.3-1.42-5.88-3.11-8.63z" fill="#fff"/><path d="M68.09 79.03l-.61-1.16-21.05-36.69c-1.27-2.22-3.61-2.48-5.48-.62-2.6 2.6-6.24 2.81-8.93.52-2.12-1.8-2.83-5.18-1.47-7.55l10.86-18.7c.06-.11.15-.19.31-.4l41.72 72.73h-4.82l-8.77-.09-11.06-.02c-.58 0-.91-.16-1.2-.67L36.84 50.19c-.6-1.04-.6-2.07.02-3.06.63-1.01 1.61-1.36 2.78-1.3l2.48.04c1.98-.06 3.39.82 4.36 2.52l14.88 25.95 1.03 1.82c1.19 2.27 2.96 3.2 5.7 2.87zm-41.2-39.08L53.9 87.04H43.83c-.32 0-.64-.01-.95-.01l-33.29-.06-8.67-.1c-.9-.01-1.14-.36-.71-1.1l11.63-20.01c.03-.05.09-.09.26-.25 1.1 2.4 3.02 4.33 3.46 7.01.25 1.55-.1 3.03-.95 4.37l-1.14 1.99h10.32l-.53-1.03-8.73-15.19c-.32-.56-.34-.98-.01-1.54l4.46-7.65c.12-.21.27-.41.47-.72l.63 1L33 76.31c.86 1.5 2.13 2.42 3.84 2.68.51.08 1.05.01 1.77.01l-.6-1.11-15.98-27.83c-.4-.69-.42-1.19 0-1.88l4.32-7.4.54-.83zM98.2 87.16c-3.49 0-6.82.02-10.15-.03-.32-.01-.74-.43-.93-.77L76.34 67.62 53.49 27.8c-2.13-3.69-2.23-7.32-.02-10.98.72-1.19 1.41-2.4 2.21-3.79L98.2 87.16z" fill="#e8155d"/><g fill="#000"><path d="M49.1 1.58c1.69 2.75 3.36 5.32 3.11 8.63-.18 2.38-1.22 4.38-2.53 6.26-.66.94-2.16.83-2.77-.16l-2.94-5.11c-.12-.22-.08-.63.05-.86l5.08-8.76zm7.89-.69c1.78 0 3.23 1.45 3.23 3.23a3.24 3.24 0 0 1-3.24 3.23c-1.78 0-3.23-1.46-3.23-3.23A3.25 3.25 0 0 1 56.99.89zm-2.88 3.24a2.88 2.88 0 0 0 2.88 2.88c1.58 0 2.87-1.29 2.88-2.88a2.88 2.88 0 1 0-5.76 0z"/><path d="M57.51 4.22c.18.07.28.19.35.34l.56 1.16.1.22c-.21 0-.4-.01-.59 0-.16.01-.23-.05-.29-.19l-.42-.98c-.12-.26-.35-.37-.63-.31v1.47h-.67v-3.6c.02 0 .04-.01.06-.01h1.1c.15 0 .31.02.45.05.55.12.78.51.73 1.03-.03.42-.26.67-.66.78-.02.02-.05.02-.09.04zm-.92-.3l.56-.05c.08-.01.16-.05.22-.1.18-.12.21-.3.18-.5-.03-.18-.14-.28-.31-.34-.21-.06-.43-.04-.65-.04v1.03zM5.22 97.48l-.56-1.4H1.54l-.56 1.4H.09l2.53-6.28h.97l2.52 6.28h-.89zM3.1 92l-1.33 3.39h2.66L3.1 92zm3.83 5.48V91.2h2.52c1.26 0 1.97.87 1.97 1.89 0 1.03-.72 1.89-1.97 1.89H7.71v2.5h-.78zm3.68-4.39c0-.71-.51-1.2-1.25-1.2H7.71v2.39h1.65c.74 0 1.25-.49 1.25-1.19zm1.85 4.39V91.2h2.52c1.26 0 1.97.87 1.97 1.89 0 1.03-.72 1.89-1.97 1.89h-1.74v2.5h-.78zm3.68-4.39c0-.71-.51-1.2-1.25-1.2h-1.65v2.39h1.65c.74 0 1.25-.49 1.25-1.19zm1.47 3.5l.47-.6a2.58 2.58 0 0 0 1.97.9c1.12 0 1.48-.6 1.48-1.09 0-1.62-3.72-.72-3.72-2.96 0-1.04.92-1.75 2.17-1.75.95 0 1.69.33 2.22.88l-.47.57c-.47-.53-1.13-.75-1.82-.75-.74 0-1.29.4-1.29 1 0 1.41 3.72.6 3.72 2.95 0 .9-.62 1.85-2.32 1.85-1.08 0-1.89-.42-2.41-1zm8.34 1.07V91h.52v6.66h-.52zm9.22-.18l-1.38-5.07-1.38 5.07h-.85l-1.79-6.28h.87l1.39 5.23 1.44-5.23h.65l1.44 5.23 1.38-5.23h.88l-1.8 6.28h-.85z"/><use xlink:href="#B"/><path d="M44.05 97.48V91.2h2.8c1.09 0 1.76.66 1.76 1.6 0 .79-.53 1.32-1.1 1.44.67.1 1.22.79 1.22 1.54 0 1.01-.67 1.69-1.82 1.69h-2.86zm3.74-4.57c0-.56-.38-1.02-1.08-1.02h-1.88v2.02h1.88c.71.01 1.08-.43 1.08-1zm.13 2.79c0-.57-.4-1.08-1.16-1.08h-1.93v2.17h1.93c.72-.01 1.16-.43 1.16-1.09z"/><use xlink:href="#C"/><path d="M55.49 97.48V91.2h.78v6.28h-.78zm3.8 0V91.9H57.3v-.7h4.76v.7h-2v5.58h-.77z"/><use xlink:href="#B" x="24.42"/><use xlink:href="#C" x="18.5"/><path d="M76.43 97.66V91h.52v6.66h-.52zm4.05-1.07l.47-.6c.41.47 1.08.9 1.97.9 1.12 0 1.48-.6 1.48-1.09 0-1.62-3.72-.72-3.72-2.96 0-1.04.92-1.75 2.17-1.75.95 0 1.69.33 2.22.88l-.47.57c-.47-.53-1.13-.75-1.82-.75-.74 0-1.29.4-1.29 1 0 1.41 3.72.6 3.72 2.95 0 .9-.62 1.85-2.32 1.85-1.09 0-1.9-.42-2.41-1z"/><use xlink:href="#B" x="47.68"/><path d="M91.48 94.34c0-1.86 1.26-3.25 3.12-3.25s3.13 1.39 3.13 3.25c0 1.85-1.27 3.25-3.13 3.25s-3.12-1.39-3.12-3.25zm5.43 0c0-1.47-.91-2.55-2.32-2.55s-2.31 1.08-2.31 2.55c0 1.46.89 2.55 2.31 2.55 1.41 0 2.32-1.09 2.32-2.55z"/></g><defs><path id="B" d="M38.69 97.48V91.2h4.11v.7h-3.33v2.02h3.27v.7h-3.27v2.17h3.33v.7h-4.11z"/><path id="C" d="M49.59 96.59l.47-.6c.41.47 1.08.9 1.97.9 1.12 0 1.48-.6 1.48-1.09 0-1.62-3.72-.72-3.72-2.96 0-1.04.92-1.75 2.17-1.75.95 0 1.69.33 2.22.88l-.47.57c-.47-.53-1.13-.75-1.82-.75-.74 0-1.29.4-1.29 1 0 1.41 3.72.6 3.72 2.95 0 .9-.62 1.85-2.32 1.85-1.08 0-1.89-.42-2.41-1z"/></defs></svg>